# AST/ASF file generated using VICON BodyLanguage
# -----------------------------------------------
:version 1.10
:name VICON
:units
  mass 1.0
  length 0.45
  angle deg
:documentation
   .ast/.asf automatically generated from VICON data using
   VICON BodyBuilder and BodyLanguage model FoxedUp or BRILLIANT.MOD
:root
   order TX TY TZ RX RY RZ
   axis XYZ
   position 0 0 0  
   orientation 0 0 0 
:bonedata
  begin
     id 1 
     name lhipjoint
     direction 0.627457 -0.725269 0.283342 
     length 2.53237 
     axis 0 0 0  XYZ
  end
  begin
     id 2 
     name lfemur
     direction 0.34202 -0.939693 0  
     length 7.32496  
     axis 0 0 20  XYZ
    dof rx ry rz
    limits (-160.0 20.0)
           (-70.0 70.0)
           (-60.0 70.0)
  end
  begin
     id 3 
     name ltibia
     direction 0.34202 -0.939693 0   
     length 7.69674   
     axis 0 0 20   XYZ
    dof rx
    limits (-10.0 170.0)
  end
  begin
     id 4 
     name lfoot
     direction 0.127289 -0.349722 0.928166   
     length 1.8612   
     axis -90 7.62852e-016 20   XYZ
    dof rx rz
    limits (-45.0 90.0)
           (-70.0 20.0)
  end
  begin
     id 5 
     name ltoes
     direction 1.53561e-011 -4.21864e-011 1   
     length 0.925608   
     axis -90 7.62852e-016 20   XYZ
    dof rx
    limits (-90.0 20.0)
  end
  begin
     id 6 
     name rhipjoint
     direction -0.609094 -0.738725 0.288599   
     length 2.48624  
     axis 0 0 0  XYZ 
  end
  begin
     id 7 
     name rfemur
     direction -0.34202 -0.939693 0   
     length 7.44259   
     axis 0 0 -20   XYZ
    dof rx ry rz
    limits (-160.0 20.0)
           (-70.0 70.0)
           (-70.0 60.0)
  end
  begin
     id 8 
     name rtibia
     direction -0.34202 -0.939693 0   
     length 7.7781   
     axis 0 0 -20   XYZ
    dof rx
    limits (-10.0 170.0)
 end
 begin
     id 9 
     name rfoot
     direction -0.107015 -0.294021 0.949789   
     length 2.14741  
     axis -90 -7.62852e-016 -20   XYZ
    dof rx rz
    limits (-45.0 90.0)
           (-20.0 70.0)
  end
  begin
     id 10 
     name rtoes
     direction -1.53497e-011 -4.21924e-011 1   
     length 1.0706   
     axis -90 -7.62852e-016 -20   XYZ
    dof rx
    limits (-90.0 20.0)
  end
  begin
     id 11 
     name lowerback
     direction -0.0142066 0.998112 -0.0597545   
     length 1.86627   
     axis 0 0 0   XYZ
    dof rx ry rz
    limits (-20.0 45.0)
           (-30.0 30.0)
           (-30.0 30.0)
  end
  begin
     id 12 
     name upperback
     direction 0.00547294 0.999744 0.0219437   
     length 1.86272   
     axis 0 0 0   XYZ
    dof rx ry rz
    limits (-20.0 45.0)
           (-30.0 30.0)
           (-30.0 30.0)
  end
  begin
     id 13 
     name thorax
     direction 0.0116162 0.998704 0.0495538   
     length 1.8703   
     axis 0 0 0   XYZ
    dof rx ry rz
    limits (-20.0 45.0)
           (-30.0 30.0)
           (-30.0 30.0)
  end
  begin
     id 14 
     name lowerneck
     direction -0.0106574 0.998739 0.0490586   
     length 1.8074   
     axis 0 0 0   XYZ
    dof rx ry rz
    limits (-20.0 45.0)
           (-30.0 30.0)
           (-30.0 30.0)
  end
  begin
     id 15 
     name upperneck
     direction 0.030527 0.976587 -0.212944   
     length 1.80681   
     axis 0 0 0   XYZ
    dof rx ry rz
    limits (-20.0 45.0)
           (-30.0 30.0)
           (-30.0 30.0)
  end
  begin
     id 16
     name head
     direction 0.00869225 0.997035 -0.0764531  
     length 1.8313  
     axis 0 0 0   XYZ
    dof rx ry rz
    limits (-20.0 45.0)
           (-30.0 30.0)
           (-30.0 30.0)
  end
  begin
     id 17 
     name lclavicle
     direction 0.915958 0.399447 0.0382386  
     length 3.78965  
     axis 0 0 0   XYZ
    dof ry rz
    limits (-20.0 10.0)
           (0.0 20.0)
  end
  begin
     id 18 
     name lhumerus
     direction 1 -4.48967e-011 3.19303e-027   
     length 4.78095   
     axis -180 -30 -90   XYZ
    dof rx ry rz
    limits (-60.0 90.0)
           (-90.0 90.0)
           (-90.0 90.0)
  end
  begin
     id 19
     name lradius
     direction 1 -4.48967e-011 -3.77974e-027   
     length 3.58615   
     axis -180 -30 -90   XYZ
    dof rx
    limits (-10.0 170.0)
  end
  begin
     id 20
     name lwrist
     direction 1 -4.48927e-011 1.2807e-027   
     length 1.79307   
     axis 1.91374e-015 90 90   XYZ
    dof ry
    limits (-180.0 0.0)
 end
  begin
     id 21 
     name lhand
     direction 1 -4.49036e-011 2.5614e-027   
     length 0.659812   
     axis -1.63439e-015 90 90   XYZ
    dof rx rz
    limits (-90.0 90.0)
           (-45.0 45.0)
  end
  begin
     id 22 
     name lfingers
     direction 1 -4.49052e-011 5.1228e-027   
     length 0.531957   
     axis -3.26879e-015 90 90   XYZ
    dof rx
    limits (0.0 90.0)
  end
  begin
     id 23
     name lthumb
     direction 0.707107 -6.35012e-011 0.707107   
     length 0.763787   
     axis -90 45 2.85299e-015   XYZ
    dof rx rz
    limits (-45.0 45.0)
           (-45.0 45.0)
  end
  begin
     id 24 
     name rclavicle
     direction -0.895351 0.435135 0.0948887   
     length 3.70497  
     axis 0 0 0   XYZ 
    dof ry rz
    limits (-10.0 20.0)
           (-20.0 0.0)
  end
  begin
     id 25 
     name rhumerus
     direction -1 -4.48971e-011 2.38946e-027  
     length 4.48913   
     axis -180 30 90   XYZ
    dof rx ry rz
    limits (-90.0 60.0)
           (-90.0 90.0)
           (-90.0 90.0)
  end
  begin
     id 26 
     name rradius
     direction -1 -4.4895e-011 4.38668e-027   
     length 3.7051   
     axis -180 30 90   XYZ
    dof rx
    limits (-10.0 170.0)
  end
  begin
     id 27 
     name rwrist
     direction -1 -4.49007e-011 1.2807e-027   
     length 1.85255   
     axis 1.91374e-015 -90 -90   XYZ
    dof ry
    limits (-180.0 0.0)
  end
  begin
     id 28
     name rhand
     direction -1 -4.48851e-011 2.5614e-027   
     length 0.449136   
     axis -1.63439e-015 -90 -90   XYZ
    dof rx rz
    limits (-90.0 90.0)
           (-45.0 45.0)
  end
  begin
     id 29
     name rfingers
     direction -1 -4.49128e-011 5.1228e-027   
     length 0.362105   
     axis -3.26879e-015 -90 -90   XYZ
    dof rx
    limits (0.0 90.0)
  end
  begin
     id 30
     name rthumb
     direction -0.707107 -6.34851e-011 0.707107   
     length 0.519912   
     axis -90 -45 -2.85299e-015   XYZ
    dof rx rz
    limits (-45.0 45.0)
           (-45.0 45.0)
  end
:hierarchy
  begin
    root lhipjoint rhipjoint lowerback
    lhipjoint lfemur
    lfemur ltibia
    ltibia lfoot
    lfoot ltoes
    rhipjoint rfemur
    rfemur rtibia
    rtibia rfoot
    rfoot rtoes
    lowerback upperback
    upperback thorax
    thorax lowerneck lclavicle rclavicle
    lowerneck upperneck
    upperneck head
    lclavicle lhumerus
    lhumerus lradius
    lradius lwrist
    lwrist lhand lthumb
    lhand lfingers
    rclavicle rhumerus
    rhumerus rradius
    rradius rwrist
    rwrist rhand rthumb
    rhand rfingers
  end

#!OML:ASF I:\Actors\actors\Patient Classification 2\Patient 1\Session 1\actor1.ASF
:FULLY-SPECIFIED
:DEGREES
30
root -1.03169 18.1578 5.02051 -1.07482 -4.09349 -5.43312
lowerback 6.78249 0.158577 2.76502
upperback -0.786086 0.552267 2.41797
thorax -4.62266 0.233864 0.895646
lowerneck -7.68666 -0.652331 -1.93077
upperneck 14.6669 -1.1777 3.58503
head 5.72277 -0.42309 1.36054
rclavicle -4.66562e-015 9.93923e-017
rhumerus -43.7997 -4.24879 -83.0308
rradius 39.7962
rwrist 21.5562
rhand -6.59834 -28.4832
rfingers 7.12502
rthumb 19.2571 -57.5498
lclavicle -4.66562e-015 9.93923e-017
lhumerus -40.4603 6.9253 88.2832
lradius 36.8222
lwrist -11.7816
lhand -3.49608 -25.6947
lfingers 7.12502
lthumb 22.2378 3.04598
rfemur 0 0 0
rtibia 0
rfoot 0 0
rtoes 0
lfemur 17.9467 -6.93735 -11.3947
ltibia -20.6387
lfoot -1.9434 24.2296
ltoes -7.05126
31
root -1.03437 18.1551 5.03415 -1.08268 -4.0863 -5.55382
lowerback 6.69416 0.172216 2.87067
upperback -0.804712 0.576729 2.43875
thorax -4.59141 0.243728 0.85561
lowerneck -7.64589 -0.69066 -2.01459
upperneck 14.6035 -1.23223 3.68412
head 5.69845 -0.447872 1.40145
rclavicle 9.85188e-015 6.95746e-016
rhumerus -43.8701 -4.40323 -83.0096
rradius 39.8228
rwrist 21.5919
rhand -6.73633 -28.4301
rfingers 7.12502
rthumb 19.1244 -57.5098
lclavicle 9.85188e-015 6.95746e-016
lhumerus -40.4879 6.82863 88.3316
lradius 36.888
lwrist -11.611
lhand -3.42674 -25.7354
lfingers 7.12502
lthumb 22.3044 2.99727
rfemur 0 0 0
rtibia 0
rfoot 0 0
rtoes 0
lfemur 18.062 -7.00723 -11.2752
ltibia -20.7334
lfoot -1.90135 24.2876
ltoes -7.35908
32
root -1.03705 18.1522 5.04972 -1.09814 -4.1373 -5.62484
lowerback 6.58344 0.222233 2.9371
upperback -0.81384 0.643469 2.42873
thorax -4.53717 0.275416 0.801271
lowerneck -7.64118 -0.730185 -2.02947
upperneck 14.6022 -1.29371 3.74785
head 5.69956 -0.474076 1.41957
rclavicle 7.72931e-015 -1.81888e-014
rhumerus -43.9943 -4.48889 -83.0632
rradius 39.8655
rwrist 21.5176
rhand -6.75009 -28.36
rfingers 7.12502
rthumb 19.1112 -57.441
lclavicle 7.72931e-015 -1.81888e-014
lhumerus -40.5042 6.6746 88.3813
lradius 36.9489
lwrist -11.4715
lhand -3.33413 -25.8098
lfingers 7.12502
lthumb 22.3933 2.91228
rfemur 0 0 0
rtibia 0
rfoot 0 0
rtoes 0
lfemur 18.2043 -7.08416 -11.2159
ltibia -20.8202
lfoot -1.9415 24.3993
ltoes -7.64621
33
root -1.04008 18.1503 5.06723 -1.11269 -4.15892 -5.64975
lowerback 6.4138 0.260341 2.94634
upperback -0.774511 0.684351 2.40665
thorax -4.39957 0.296651 0.76941
lowerneck -7.77875 -0.744419 -1.99251
upperneck 14.6458 -1.31607 3.73761
head 5.73735 -0.481934 1.4086
rclavicle 1.85778e-015 1.0138e-014
rhumerus -44.0393 -4.54593 -83.1797
rradius 39.9055
rwrist 21.455
rhand -6.60049 -28.3898
rfingers 7.12502
rthumb 19.255 -57.4566
lclavicle 1.85778e-015 1.0138e-014
lhumerus -40.4035 6.63562 88.3858
lradius 36.9323
lwrist -11.4473
lhand -3.23283 -25.7841
lfingers 7.12502
lthumb 22.4905 2.92624
rfemur 0 0 0
rtibia 0
rfoot 0 0
rtoes 0
lfemur 18.3508 -7.27085 -11.2159
ltibia -20.9021
lfoot -2.04415 24.5839
ltoes -7.39217
34
root -1.04447 18.1489 5.08288 -1.05953 -4.10483 -5.70023
lowerback 6.21475 0.266143 2.95863
upperback -0.742277 0.681941 2.40057
thorax -4.25333 0.29665 0.757114
lowerneck -8.06405 -0.737611 -2.01639
upperneck 14.7475 -1.30462 3.74923
head 5.81829 -0.473159 1.41708
rclavicle -1.20832e-014 -1.02374e-014
rhumerus -44.0076 -4.56015 -83.3455
rradius 39.919
rwrist 21.3962
rhand -6.52932 -28.3891
rfingers 7.12502
rthumb 19.3235 -57.449
lclavicle -1.20832e-014 -1.02374e-014
lhumerus -40.2742 6.76046 88.3239
lradius 36.9429
lwrist -11.4352
lhand -2.86318 -25.6157
lfingers 7.12502
lthumb 22.8453 3.05121
rfemur 0 0 0
rtibia 0
rfoot 0 0
rtoes 0
lfemur 18.3803 -7.31796 -11.1502
ltibia -20.9657
lfoot -2.01228 24.584
ltoes -7.36193
35
root -1.04959 18.1473 5.09715 -0.997667 -4.05365 -5.74371
lowerback 6.06061 0.275197 2.9499
upperback -0.769712 0.687077 2.40221
thorax -4.19487 0.299872 0.76386
lowerneck -8.19566 -0.757978 -2.21163
upperneck 14.836 -1.33366 3.93089
head 5.87177 -0.482714 1.50487
rclavicle 2.23633e-016 9.39258e-015
rhumerus -44.0734 -4.49751 -83.5197
rradius 39.9181
rwrist 21.2856
rhand -7.12534 -28.4253
rfingers 7.12502
rthumb 18.7503 -57.5416
lclavicle 2.23633e-016 9.39258e-015
lhumerus -40.2647 6.88862 88.2735
lradius 37.0295
lwrist -11.3087
lhand -2.25477 -25.276
lfingers 7.12502
lthumb 23.429 3.31764
rfemur 0 0 0
rtibia 0
rfoot 0 0
rtoes 0
lfemur 18.3821 -7.32205 -11.0809
ltibia -21.0153
lfoot -2.0196 24.5373
ltoes -7.60758
36
root -1.05363 18.1462 5.11209 -0.984497 -4.04719 -5.76727
lowerback 5.96558 0.310539 2.93828
upperback -0.80534 0.730209 2.40296
thorax -4.17804 0.321561 0.767519
lowerneck -8.15468 -0.801751 -2.43419
upperneck 14.8214 -1.3927 4.1307
head 5.86454 -0.509509 1.60049
rclavicle 4.67726e-015 2.08227e-014
rhumerus -44.1977 -4.42262 -83.6726
rradius 39.9021
rwrist 21.2163
rhand -6.81779 -28.8482
rfingers 7.12502
rthumb 19.0461 -57.9357
lclavicle 4.67726e-015 2.08227e-014
lhumerus -40.2693 6.94734 88.2912
lradius 36.9983
lwrist -11.2482
lhand -2.06265 -25.1044
lfingers 7.12502
lthumb 23.6133 3.4656
rfemur 0 0 0
rtibia 0
rfoot 0 0
rtoes 0
lfemur 18.4544 -7.41939 -11.0556
ltibia -21.0596
lfoot -2.15566 24.5952
ltoes -7.42942
37
root -1.05664 18.1455 5.12746 -0.953613 -4.07566 -5.81265
lowerback 5.84681 0.359616 2.96698
upperback -0.826134 0.792828 2.40235
thorax -4.13172 0.352308 0.745596
lowerneck -8.12202 -0.828085 -2.4957
upperneck 14.7456 -1.4167 4.12408
head 5.83631 -0.525832 1.60644
rclavicle -5.11327e-016 -2.03754e-015
rhumerus -44.317 -4.3454 -83.8611
rradius 39.8914
rwrist 21.2311
rhand -5.9266 -29.2402
rfingers 7.12502
rthumb 19.9029 -58.2411
lclavicle -5.11327e-016 -2.03754e-015
lhumerus -40.2456 7.02959 88.2981
lradius 36.8615
lwrist -11.3544
lhand -2.24378 -25.208
lfingers 7.12502
lthumb 23.4396 3.38438
rfemur 0 0 0
rtibia 0
rfoot 0 0
rtoes 0
lfemur 18.5121 -7.47586 -11.0067
ltibia -21.0922
lfoot -2.28942 24.6707
ltoes -7.08534
38
root -1.05889 18.1448 5.14394 -0.893912 -4.11778 -5.82954
lowerback 5.67802 0.39724 2.97242
upperback -0.84269 0.835304 2.38805
thorax -4.05292 0.373803 0.724874
lowerneck -8.15503 -0.833623 -2.48223
upperneck 14.7103 -1.4086 4.02275
head 5.82998 -0.528375 1.57256
rclavicle -2.27205e-015 1.50579e-014
rhumerus -44.4661 -4.20747 -84.1128
rradius 39.9385
rwrist 21.274
rhand -6.71698 -28.9995
rfingers 7.12502
rthumb 19.143 -58.0774
lclavicle -2.27205e-015 1.50579e-014
lhumerus -40.2747 7.18048 88.2556
lradius 36.8207
lwrist -11.4997
lhand -2.35085 -25.2978
lfingers 7.12502
lthumb 23.3368 3.3076
rfemur 0 0 0
rtibia 0
rfoot 0 0
rtoes 0
lfemur 18.5347 -7.58282 -11.005
ltibia -21.1137
lfoot -2.40376 24.836
ltoes -6.90313
39
root -1.06104 18.1445 5.16006 -0.843919 -4.11869 -5.82602
lowerback 5.54554 0.412521 2.9655
upperback -0.866895 0.848479 2.3556
thorax -4.00265 0.380522 0.694866
lowerneck -8.25979 -0.846403 -2.4871
upperneck 14.7571 -1.41718 3.97324
head 5.8628 -0.53502 1.55713
rclavicle -6.70588e-015 2.98177e-015
rhumerus -44.6012 -4.02088 -84.4137
rradius 39.9864
rwrist 21.2801
rhand -6.84405 -28.5416
rfingers 7.12502
rthumb 19.0208 -57.6316
lclavicle -6.70588e-015 2.98177e-015
lhumerus -40.3114 7.37173 88.1726
lradius 36.8147
lwrist -11.6642
lhand -2.41334 -25.2502
lfingers 7.12502
lthumb 23.2769 3.36276
rfemur 0 0 0
rtibia 0
rfoot 0 0
rtoes 0
lfemur 18.5435 -7.6668 -11.0284
ltibia -21.1293
lfoot -2.36402 24.9262
ltoes -7.26604
40
root -1.06404 18.1439 5.17426 -0.817043 -4.1029 -5.83182
lowerback 5.48548 0.432408 2.9741
upperback -0.898821 0.872199 2.31058
thorax -4.00078 0.391449 0.641802
lowerneck -8.36479 -0.893472 -2.51758
upperneck 14.8157 -1.47728 3.97605
head 5.90167 -0.564216 1.55863
rclavicle 6.33665e-015 8.44835e-015
rhumerus -44.6871 -3.8811 -84.7299
rradius 39.9627
rwrist 21.1995
rhand -6.18451 -28.382
rfingers 7.12502
rthumb 19.655 -57.4084
lclavicle 6.33665e-015 8.44835e-015
lhumerus -40.3306 7.49789 88.0997
lradius 36.7609
lwrist -11.7555
lhand -2.53763 -25.1785
lfingers 7.12502
lthumb 23.1576 3.44949
rfemur 0 0 0
rtibia 0
rfoot 0 0
rtoes 0
lfemur 18.5562 -7.62887 -11.0203
ltibia -21.1301
lfoot -2.26064 24.8674
ltoes -7.82687
